<svg xmlns="http://www.w3.org/2000/svg" xmlns:xlink="http://www.w3.org/1999/xlink" version="1.1" x="0px" y="0px" viewBox="0 0 168.292 243.75" enable-background="new 0 0 168.292 195" xml:space="preserve"><polygon points="98.561,156.685 98.561,129.244 81.257,129.244 81.257,156.685 62.143,156.685 90.236,189.838 118.328,156.685 "/><path d="M108.445,80.67c-1.24,0-2.08,0.12-2.52,0.24v7.959c0.52,0.12,1.159,0.16,2.039,0.16c3.239,0,5.239-1.64,5.239-4.399  C113.204,82.15,111.484,80.67,108.445,80.67z"/><path d="M145.341,60.118V45.374c0-0.773-0.324-1.558-0.866-2.109L108.553,6.886c-0.468-0.585-1.415-0.891-2.134-0.891H37.722  c-1.657,0-3,1.343-3,3v51.123h-9.425v59.57h9.425v25.232c0,1.658,1.343,3,3,3h38.535v-6H40.722v-22.232h98.619v22.232h-35.78v6  h38.78c1.657,0,3-1.342,3-3v-25.232h9.108v-59.57H145.341z M109.419,16.298l25.738,26.076h-25.738V16.298z M80.643,103.227H59.687  v-3.279L72.524,81.47v-0.16H60.886v-5.039h19.557v3.52L67.885,98.027v0.16h12.758V103.227z M92.605,103.227h-6.118V76.271h6.118  V103.227z M116.763,90.869c-2.08,1.959-5.159,2.839-8.759,2.839c-0.8,0-1.52-0.04-2.079-0.12v9.638h-6.039V76.631  c1.879-0.32,4.519-0.56,8.238-0.56c3.76,0,6.438,0.72,8.238,2.16c1.72,1.359,2.88,3.599,2.88,6.239S118.363,89.349,116.763,90.869z   M139.341,60.118H40.722V11.995h62.697v33.378c0,1.657,1.343,3,3,3h32.922V60.118z"/><text x="0" y="210" fill="#000000" font-size="5px" font-weight="bold" font-family="'Helvetica Neue', Helvetica, Arial-Unicode, Arial, Sans-serif">Created by corpus delicti</text><text x="0" y="215" fill="#000000" font-size="5px" font-weight="bold" font-family="'Helvetica Neue', Helvetica, Arial-Unicode, Arial, Sans-serif">from the Noun Project</text></svg>