<?xml version="1.0" encoding="utf-8"?>
<!-- Generator: Adobe Illustrator 19.2.1, SVG Export Plug-In . SVG Version: 6.00 Build 0)  -->
<svg version="1.2" baseProfile="tiny" id="Calque_1"
	 xmlns="http://www.w3.org/2000/svg" xmlns:xlink="http://www.w3.org/1999/xlink" x="0px" y="0px" viewBox="0 0 283.5 226.8"
	 xml:space="preserve">
<path fill="#E6843A" d="M86.6,77.8L86.6,77.8L86.6,77.8L86.6,77.8C86.6,77.8,86.6,77.8,86.6,77.8z M87,73.9L87,73.9L87,73.9L87,73.9
	C87,73.9,87,73.9,87,73.9z"/>
<path fill="#D06A28" d="M156.7,58.8c-0.7,0.1-0.9,0.7-1.1,1.1c-2.3,3.5-4.7,7-7,10.5c-2.2,3.2-4.3,6.5-6.4,9.7
	c-2.5,3.8-5.1,7.5-7.6,11.3c-1.1,1.7-2.2,3.4-3.4,5.2c-0.9-1.7-1.7-3.2-2.6-4.8c-2.3-4.1-4.5-8.3-6.8-12.5c-2-3.8-4.1-7.5-6.1-11.3
	c-1.7-3.2-3.4-6.4-5.2-9.6c-0.4-0.8-0.9-1.5-1.4-2.3c-0.2-0.3-0.3-0.6,0-0.9c1.4,0.2,2.9,0.2,4.3,0.3c7,0.5,14.1,1,21.2,1.5
	c3.9,0.3,7.9,0.5,11.8,0.8c2.9,0.2,5.7,0.4,8.6,0.6c0.5,0,0.9,0.2,1.4,0.2C156.5,58.7,156.6,58.7,156.7,58.8z"/>
<path fill="#EAB68E" d="M136.7,160.2c-0.2,0.2-0.4,0.5-0.5,0.8c-1.6,2.9-3.2,5.8-4.8,8.7c-0.1,0.2-0.4,0.4-0.1,0.7
	c-0.6,0.5-1.1,0-1.5-0.2c-2-0.9-4-1.9-6-2.8c-4.2-2-8.4-4-12.7-6c-3.4-1.6-6.9-3.1-10.4-4.5c-3-1.2-6-2.5-9-3.7
	c-4.6-1.9-9.3-3.7-14-5.5c-4.2-1.7-8.4-3.4-12.6-5.1c-3.3-1.3-6.6-2.6-9.8-3.9c-2.6-1-5.2-2.1-7.8-3.2c-0.4-0.2-0.9-0.2-1.3-0.5
	c0.5-0.5,0.8,0.1,1.2,0.2c2.9,0.7,5.8,1.5,8.7,2.2c2.6,0.7,5.1,1.4,7.6,2.1c2.5,0.7,5.1,1.2,7.6,1.9c3.8,1.1,7.7,2,11.5,3
	c4.2,1.1,8.4,2.2,12.5,3.3c0.3,0.1,0.5,0.1,0.7-0.3c1.3-2.9,2.2-5.8,3.6-8.7c0.7-1.3,1.1-2.8,1.6-4.2c0.2-0.5,0.4-0.6,0.8-0.2
	c1.4,1.4,2.9,2.9,4.3,4.4c1.9,2,3.8,3.9,5.7,5.9c0.1,0.1,0.1,0.1,0.2,0.2c0.8,1.2,1.8,2.2,2.7,3.3c1.8,2.2,3.7,4.4,5.6,6.6
	c1.5,1.8,3.1,3.6,4.6,5.4c0.3,0.3,0.4,0.2,0.6,0c0.6-0.8,1.2-1.6,1.8-2.3c1-1.3,2.1-2.7,3.1-4c0.5-0.6,0.8-0.6,1.3,0.1
	c1.4,2,2.8,3.9,4.2,5.9C136.1,159.9,136.3,160.1,136.7,160.2z"/>
<path fill="#D06A28" d="M86.1,105.2c0,0.2-0.1,0.3-0.1,0.5c-0.7-0.1-1.2,0.5-1.7,0.9c-3.7,2.6-7.3,5.2-11,7.8c-5.7,4-11.4,8-17,12
	c-3.7,2.6-7.3,5.2-11,7.8c-0.1,0-0.1,0.1-0.2,0.1c-0.1,0-0.1-0.1-0.2-0.1c0-0.1,0-0.1,0-0.2c1.4-2.9,2.8-5.9,4.1-8.8
	c1.5-3.2,2.9-6.3,4.3-9.5c2-4.3,3.9-8.5,5.9-12.8c3.3-7,6.5-14,9.8-21c0.1-0.2,0.2-0.3,0.3-0.5c0.2-0.1,0.5-0.3,0.6,0.1
	c0.2,1,1.1,1.7,1.6,2.6c1,2,2.4,3.8,3.7,5.6c1.1,1.7,2.3,3.3,3.4,5c0.8,1.2,1.6,2.4,2.4,3.6c0.8,1.2,1.4,2.4,2.4,3.5
	c0.7,0.8,1.1,1.8,1.6,2.7C85.4,104.9,85.6,105.2,86.1,105.2z"/>
<path fill="#E6843A" d="M212,135.6c-0.8-1.7-1.5-3.5-2.3-5.2c-2.6-6-5.3-12-7.9-17.9c-2.1-4.8-4.3-9.6-6.4-14.4
	c-1.4-3.1-2.7-6.1-4-9.2c-1.5-3.4-3-6.8-4.6-10.2l-23.2-15.3L163,63c-0.3-0.1-0.5-0.3-0.7-0.4c-0.9-0.6-1.9-1.2-2.8-1.8
	c0-0.1-0.1-0.1-0.1-0.2l-0.5-0.3l0,0c-0.1,0-0.2-0.1-0.2-0.1c-0.6-0.4-1.3-0.9-1.9-1.3c-0.7,0.1-0.9,0.7-1.1,1.1
	c-2.3,3.5-4.7,7-7,10.5c-2.2,3.2-4.3,6.5-6.4,9.7c-2.5,3.8-5.1,7.5-7.6,11.3c-1.1,1.7-2.2,3.4-3.4,5.2c-0.9-1.7-1.7-3.2-2.6-4.8
	c-2.3-4.1-4.5-8.3-6.8-12.5c-2-3.8-4.1-7.5-6.1-11.3c-1.7-3.2-3.4-6.4-5.2-9.6c-0.4-0.8-0.9-1.5-1.4-2.3c-0.2-0.3-0.3-0.6,0-0.9
	c-0.2,0-0.3,0-0.5,0c-1.7,1.2-3.4,2.3-5.1,3.5c-0.1,0.1-0.2,0.2-0.3,0.3c-0.4,0.1-0.8,0.3-1.1,0.6c-0.1,0.2-0.3,0.3-0.5,0.5
	c-1.4,0.3-2.3,1.4-3.3,2.2c-0.6,0.1-0.9,0.7-1.5,0.7c-1,1.1-2.3,1.7-3.5,2.5c-3,2-6,4-9,6c-2.7,1.8-5.5,3.6-8.3,5.4
	c-2.2,1.4-4.3,2.8-6.5,4.3l0,0.3c0.2-0.1,0.5-0.3,0.6,0.1c0.2,1,1.1,1.7,1.6,2.6c1,2,2.4,3.8,3.7,5.6c1.1,1.7,2.3,3.3,3.4,5
	c0.8,1.2,1.6,2.4,2.4,3.6c0.8,1.2,1.4,2.4,2.4,3.5c0.7,0.8,1.1,1.8,1.6,2.7c0.2,0.4,0.4,0.8,0.9,0.8c1.9-1.4,3.9-2.8,5.8-4.2
	c1.8-1.3,3.6-2.6,5.3-3.9c0.4-0.3,0.9-0.3,1.4-0.1c4.1,1.6,8.2,3.2,12.2,4.8c2.8,1.1,5.6,2.2,8.4,3.3c1.5-0.8,2.8-2,4.2-2.9
	c2.4-1.7,4.7-3.4,7.1-5.1c0.1-0.1,0.2,0,0.3-0.1c0.1,0.1,0.2,0.2,0.3,0.3c0.1-0.6,0.4-0.2,0.6-0.1c3.1,1.9,6.2,3.8,9.4,5.6
	c1.3,0.7,2.4,1.7,3.8,2.2c3.9-1.1,7.8-2.1,11.7-3.2c3.2-0.9,6.5-1.8,9.8-2.6c0.2-0.1,0.5-0.1,0.8-0.1c0.1-0.1,0.1-0.1,0.2,0
	c0,0-0.1,0.1-0.1,0.1c-0.9,1.5-2.1,2.8-3.1,4.2c-2.3,3-4.5,5.9-6.8,8.9c-0.6,0.7-1.2,1.5-1.7,2.2c-0.3,0.3-0.5,0.4-0.8,0
	c-1.8-1.8-3.7-3.5-5.5-5.2c-1.3-1.3-2.7-2.5-4-3.8c-0.3,0-0.5,0.1-0.5,0.4c0,0.9-0.1,1.8-0.2,2.7c0,1.5-0.3,3-0.5,4.5
	c0,0.4-0.2,0.9,0.1,1.3c0.1,0.1,0.1,0.2,0,0.3c-0.6,1.1-0.4,2.4-0.5,3.6c-0.2,2.5-0.4,4.9-0.7,7.4c-0.1,1.3-0.3,2.7-0.4,4
	c-0.1,1.1-0.3,2.1-0.2,3.2c0,0.2-0.1,0.4,0.1,0.5c0.2,0.1,0.3-0.2,0.4-0.2c0.9-0.4,1.7-1,2.5-1.6c2.1-1.5,4.2-2.9,6.4-4.3
	c2.3-1.5,4.4-3.2,6.8-4.5c0.7-0.4,1.2-0.8,1.9-1.3c0.2-0.2,0.4-0.3,0.7-0.3c0.6-1.3,0.9-2.6,1.2-4c1.6-5.8,3.3-11.6,4.9-17.4
	c0.2-0.6,0.3-0.9,0.9-0.3c3,2.6,6,5.2,9.1,7.7c3.1,2.6,6.1,5.1,9.2,7.7c5.8,4.9,11.5,9.7,17.3,14.6c2.5,2.1,5.1,4.3,7.6,6.5
	c0.1,0.1,0.3,0.3,0.4,0.1C212.2,135.9,212,135.7,212,135.6z M86.6,77.8L86.6,77.8L86.6,77.8C86.6,77.8,86.6,77.8,86.6,77.8
	L86.6,77.8z M87,74L87,74L87,74C87,73.9,87,73.9,87,74L87,74z"/>
<path fill="#EAB68E" d="M158.9,60.3c0.2,0.1,0.4,0.2,0.5,0.3L158.9,60.3z"/>
<path fill="#EAB68E" d="M195.7,28.5c-0.2,1.4-0.5,2.9-0.7,4.3c-0.8,4.5-1.6,9.1-2.4,13.6c-0.8,4.4-1.6,8.8-2.4,13.2
	c-1,5.5-1.9,10.9-2.9,16.4c-0.1,0.9-0.3,1.7-0.5,2.6l-23.2-15.3c-0.1-0.1-0.1-0.2-0.2-0.3c1.2-1.3,2.4-2.6,3.5-3.9
	c2.9-3.2,5.9-6.4,8.8-9.6c2.8-3.1,5.7-6.2,8.5-9.3c2.7-2.9,5.4-5.8,8.1-8.7c1-1.1,2.1-2,2.9-3.3c0-0.3,0.2-0.4,0.4-0.3
	C195.8,28.1,195.7,28.4,195.7,28.5z"/>
<path fill="#EAB68E" d="M96.7,63c-1,1.1-2.3,1.7-3.5,2.5c-3,2-6,4-9,6c-2.7,1.8-5.5,3.6-8.3,5.4c-2.2,1.4-4.3,2.8-6.5,4.3
	c0.1-1.7-0.2-3.4-0.3-5.1c-0.1-2.1-0.3-4.2-0.5-6.4c-0.3-4-0.6-8-0.9-12c-0.2-2.6-0.3-5.3-0.6-7.9c-0.3-3.4-0.4-6.9-0.8-10.3
	c-0.2-1.9-0.3-3.9-0.4-5.8c0-0.4,0-0.8-0.1-1.2c-0.1-0.2-0.2-0.6,0.1-0.7c0.3-0.1,0.6,0,0.7,0.3c-0.2,0.4,0.2,0.6,0.4,0.8
	c1,1,1.9,2,2.9,2.9c4,4.1,8,8.2,12.1,12.3C87,53.1,91.9,58.1,96.7,63z"/>
<path fill="#EAB68E" d="M211.1,136.8c-1.5,0.6-3.1,1.3-4.6,1.9c-1.6,0.6-3.2,1.2-4.8,1.9c-2.6,1-5.2,2.1-7.9,3.1
	c-3.5,1.4-7,2.8-10.5,4.2c-4.4,1.8-8.9,3.5-13.3,5.3c-5.3,2.1-10.5,4.2-15.8,6.3c-1.2,0.5-2.3,1.1-3.6,1.4c-0.1,0-0.2-0.1-0.3-0.1
	c-2.7,0.1-5.4-0.2-8.1-0.2c-1.4,0-2.9-0.2-4.3-0.2c-0.3,0-0.8,0.2-1.1-0.2c0-0.3,0.2-0.5,0.4-0.7c2.8-3.1,5.6-6.1,8.4-9.2
	c1.7-1.8,3.4-3.6,4.9-5.5c0.3-0.1,0.4-0.3,0.4-0.6c0.4-0.2,0.5-0.6,0.6-0.9c1.2-2.2,2.4-4.4,3.4-6.7c0.4-0.9,1.2-1.5,1.2-2.6
	c-4.4,0-8.7,0-13.1,0c0.2-0.2,0.4-0.2,0.6-0.2c4.2,0,8.5,0,12.7,0c0.9,1.1,2,2.1,2.9,3.3c2,2.4,4.2,4.7,6.3,7
	c0.2,0.2,0.4,0.5,0.7,0.4c2.1-0.5,4.3-0.7,6.4-1.1c3.5-0.7,7-1.2,10.5-1.8c3-0.6,6.1-1.1,9.2-1.6c2.8-0.5,5.6-0.9,8.4-1.4
	c2.6-0.4,5.2-0.9,7.8-1.3c0.6-0.1,1.3,0,1.7-0.6c0.2,0,0.5,0,0.7,0C211.1,136.6,211.1,136.7,211.1,136.8z"/>
<path fill="#EDECEC" d="M94.7,141.8c0.6,0.2,1.1,0.1,1.7-0.1C95.9,142,95.3,142,94.7,141.8z"/>
<path fill="#FFFFFF" d="M120.3,133.7c-5.1,0-10.2,0-15.3,0c-1,0-2,0-2.9,0c-0.3,0-0.6-0.1-0.9-0.2c-0.3,0.2-0.8,0.2-1.1,0.2
	c-0.6,0,0-0.5-0.4-0.9c-0.2,1.1-1.1,0.9-1.9,0.9c-2.5,0.2-5,0.1-7.5,0.2c-6.8,0.2-13.5,0-20.3,0.2c-3.4,0.1-6.8,0-10.3,0.2
	c-4.5,0.3-8.9,0.1-13.4,0.1c-0.3,0-0.7,0.1-1-0.2c-0.1,0-0.1,0.1-0.2,0.1c0,0.6,0.5,0.6,0.9,0.6c0.5-0.5,0.8,0.1,1.2,0.2
	c2.9,0.7,5.8,1.5,8.7,2.2c2.6,0.7,5.1,1.4,7.6,2.1c2.5,0.7,5.1,1.2,7.6,1.9c3.8,1.1,7.7,2,11.5,3c4.2,1.1,8.4,2.2,12.5,3.3
	c0.3,0.1,0.5,0.1,0.7-0.3c1.3-2.9,2.2-5.8,3.6-8.7c0.7-1.3,1.1-2.8,1.6-4.2c0.2-0.5,0.4-0.6,0.8-0.2c1.4,1.4,2.9,2.9,4.3,4.4
	c1.9,2,3.8,3.9,5.7,5.9c0-0.3,0-0.6,0.3-0.9c1.6-1.8,3-3.7,4.6-5.5c1.1-1.2,2.1-2.5,3-3.9c0.2-0.3,0.4-0.2,0.6-0.2
	C120.4,133.9,120.3,133.8,120.3,133.7z M89.1,134.1c0,0.7-0.1,1.5,0,2.2C88.5,135.6,88.8,134.9,89.1,134.1z M90.7,138.3
	c-0.1-0.1-0.1-0.1-0.2-0.2c-0.1-0.1-0.1-0.2-0.2-0.4h0v0c-0.2,0-0.4-0.1-0.4-0.3c0-0.1,0-0.2,0.1-0.1c0.2,0.1,0.3,0.2,0.3,0.4h0v0
	c0.5,0.1,0.7,0.5,1,0.9C91,138.5,90.8,138.4,90.7,138.3z M97.5,141.3c0,0-0.1,0-0.1,0.1c0,0,0,0,0,0c0,0,0,0,0,0
	c-0.1,0.1-0.2,0.3-0.3,0.4c-0.1,0.1-0.2,0.2-0.4,0.3c-0.6,0.4-1.5,0.3-2.2-0.3c0.1,0,0.2,0.1,0.2,0.1c0.6,0.2,1.1,0.1,1.7-0.1
	c0.3-0.1,0.6-0.2,0.9-0.4h0v0c0,0,0,0,0,0c0,0,0,0,0,0c0-0.1,0-0.1,0-0.2C97.4,141.2,97.4,141.2,97.5,141.3
	C97.5,141.2,97.5,141.3,97.5,141.3z"/>
<path fill="#884820" d="M108.6,55.3c-1.7,1.2-3.4,2.3-5.1,3.5c-0.1,0.1-0.2,0.2-0.3,0.3c-0.4,0.1-0.8,0.3-1.1,0.6
	c-0.1,0.2-0.3,0.3-0.5,0.5c-1.4,0.3-2.3,1.4-3.3,2.2c-0.6,0.1-0.9,0.7-1.5,0.7c-4.9-5-9.7-9.9-14.6-14.9c-4-4.1-8-8.2-12.1-12.3
	c-1-1-1.9-2-2.9-2.9c-0.2-0.2-0.5-0.4-0.4-0.8c4.4,2.5,8.8,4.9,13.2,7.4c5,2.8,10,5.5,15,8.3c4.5,2.5,9,5,13.5,7.4
	C108.5,55.2,108.5,55.3,108.6,55.3z"/>
<path fill="#D06A28" d="M161.4,121.2c-0.6,2.1-1.6,4.1-2.4,6.1c-0.8,2.1-1.7,4.1-2.4,6.2c0,0.1-0.1,0.1-0.1,0.2c-4.2,0-8.5,0-12.7,0
	c-0.2,0-0.5-0.1-0.6,0.2c0,0-0.1,0-0.2,0.1c-0.1,0-0.2,0-0.3-0.1c-0.1-0.1-0.1-0.1-0.2-0.2c-0.4-1.5-0.9-2.9-1.3-4.4
	c-1-3.1-2-6.3-3-9.4c-1.4-4.4-2.7-8.9-4.1-13.3c-0.9-3.1-1.9-6.1-2.8-9.2c0.1-0.6,0.4-0.2,0.6-0.1c3.1,1.9,6.2,3.8,9.4,5.6
	c1.3,0.7,2.4,1.7,3.8,2.2c0.1,0.2,0.2,0.4,0.3,0.5c-0.3,0-0.5,0.1-0.5,0.4c0,0.9-0.1,1.8-0.2,2.7c0,1.5-0.3,3-0.5,4.5
	c0,0.4-0.2,0.9,0.1,1.3c0.1,0.1,0.1,0.2,0,0.3c-0.6,1.1-0.4,2.4-0.5,3.6c-0.2,2.5-0.4,4.9-0.7,7.4c-0.1,1.3-0.3,2.7-0.4,4
	c-0.1,1.1-0.3,2.1-0.2,3.2c0,0.2-0.1,0.4,0.1,0.5c0.2,0.1,0.3-0.2,0.4-0.2c0.9-0.4,1.7-1,2.5-1.6c2.1-1.5,4.2-2.9,6.4-4.3
	c2.3-1.5,4.4-3.2,6.8-4.5c0.7-0.4,1.2-0.8,1.9-1.3C160.9,121.3,161.1,121.2,161.4,121.2z"/>
<path fill="#EDECEC" d="M156.5,133.6c0-0.1,0.1-0.1,0.1-0.2c1.1,0.4,2.3,0.3,3.5,0.4c2.5,0.2,5.1-0.1,7.7,0.2
	c1.4,0.2,2.7,0.1,4.1,0.2c3.1,0.1,6.1,0.2,9.2,0.5c4,0.4,8,0.4,12,0.6c2.1,0.1,4.1,0.2,6.2,0.4c2.1,0.2,4.3,0,6.4,0.2
	c1.6,0.1,3.2,0.3,4.8,0.5c-0.4,0.6-1.1,0.5-1.7,0.6c-2.6,0.5-5.2,0.9-7.8,1.3c-2.8,0.5-5.6,0.9-8.4,1.4c-3.1,0.5-6.1,1-9.2,1.6
	c-3.5,0.7-7,1.1-10.5,1.8c-2.1,0.4-4.3,0.6-6.4,1.1c-0.4,0.1-0.5-0.2-0.7-0.4c-2.1-2.3-4.3-4.6-6.3-7
	C158.5,135.8,157.4,134.8,156.5,133.6z"/>
<path fill="#884820" d="M195.1,28.4c-0.8,1.2-1.9,2.2-2.9,3.3c-2.6,2.9-5.4,5.8-8.1,8.7c-2.8,3.1-5.7,6.2-8.5,9.3
	c-2.9,3.2-5.9,6.4-8.8,9.6c-1.2,1.3-2.4,2.6-3.5,3.9c-0.1,0-0.2,0-0.3,0c-0.3-0.1-0.5-0.3-0.7-0.4c-0.9-0.6-1.9-1.2-2.8-1.8
	c0-0.1-0.1-0.1-0.1-0.2c-0.1-0.2-0.3-0.3-0.5-0.3l0,0c-0.1,0-0.2-0.1-0.2-0.1c-0.6-0.4-1.3-0.9-1.9-1.3c-0.1-0.1-0.2-0.1-0.4-0.2
	c2.3-1.8,4.7-3.6,7-5.4c3.4-2.6,6.7-5.3,10.1-7.9c2-1.6,4.1-3.2,6.1-4.8c3-2.4,6.1-4.8,9.1-7.2C190.8,31.7,193,30,195.1,28.4z"/>
<path fill="#E6843A" d="M136.8,160.1c0.3,0.4,0.8,0.2,1.1,0.2c1.5,0,2.9,0.2,4.3,0.2c2.7,0,5.4,0.3,8.1,0.2c0.1,0,0.2,0.1,0.3,0.1
	c-5.2,2.8-10.6,5.2-15.9,7.9c-1.2,0.6-2.4,1.1-3.5,1.7c-0.3-0.3,0-0.5,0.1-0.7c1.6-2.9,3.2-5.8,4.8-8.7c0.2-0.3,0.4-0.5,0.6-0.8
	C136.7,160.1,136.8,160.1,136.8,160.1z"/>
<path fill="#EDECEC" d="M164.4,129.8L164.4,129.8c-0.6,0-0.6,0-1.5-1.4c0.7-0.4,1.2-0.3,1.4,0.5l0,0c-0.1,0-0.2,0.1-0.3,0.1
	c0,0.2,0.1,0.2,0.3,0.2C164.3,129.4,164.4,129.6,164.4,129.8z"/>
<path fill="#EDECEC" d="M164.8,132.6c0.6-0.7,0.5-1.5,0.5-2.4C165.9,131.7,165.8,132.1,164.8,132.6L164.8,132.6z"/>
<path fill="#EDECEC" d="M169.9,124.3c0.1,0.5-0.8,0.7-0.4,1.2c0,0,0,0,0,0c-0.2,0-0.5-0.1-0.5-0.4
	C169.1,124.8,169.4,124.4,169.9,124.3L169.9,124.3z"/>
<path fill="#FFFFFF" d="M160.6,130.4C160.6,130.4,160.7,130.5,160.6,130.4c0,0.1,0,0.2-0.1,0.2c0,0.1-0.1,0.3-0.2,0.4
	c-0.1,0.1-0.3,0.2-0.4,0c-0.1-0.2,0.1-0.3,0.3-0.3c0.1,0,0.2-0.1,0.3-0.1C160.6,130.6,160.6,130.5,160.6,130.4z"/>
<path fill="#FFFFFF" d="M162.6,128.1c-1.4-0.1-1.7,1.3-2.8,1.7c-0.1,0.3-0.2,0.5-0.3,0.8c-0.5-0.6-0.5-0.6,0.3-0.8
	C160.5,128.3,161.5,127.7,162.6,128.1z"/>
<path fill="#FFFFFF" d="M166.2,125c-0.6-0.1-1.1-0.1-1.5-0.2c0-0.1,0-0.2,0-0.2C165.2,124.6,165.7,124.3,166.2,125z"/>
<path fill="#FFFFFF" d="M169.1,127.6c-1.5-0.1-2.1-0.7-2.3-2c0,0,0.1,0,0.1,0C167.3,126.5,168.1,127,169.1,127.6z"/>
<path fill="#FFFFFF" d="M167.1,130.4c-0.2,0.4-0.6,0.8-1.2,0.3c0,0,0,0,0-0.1c0.1-0.3,0.3,0,0.4-0.1c0.5-0.1,0.7-0.5,0.4-0.9
	c-0.1-0.2-0.3-0.3-0.3-0.6c-0.1-0.1-0.1-0.1-0.2-0.2l0,0c0.1,0.1,0.1,0.1,0.2,0.2C167,129.3,167.5,129.7,167.1,130.4z"/>
<path fill="#FFFFFF" d="M164.8,130C164.8,130,164.8,130.1,164.8,130c-0.3,0.1-0.4,0-0.4-0.2v0C164.6,129.8,164.8,129.8,164.8,130z"
	/>
<path fill="#FFFFFF" d="M166.2,123.4c0-0.4,0.3-0.8,0.8-0.8l0,0c0,0.1,0,0.2-0.1,0.2c-0.7,0.5-0.6,1.2-0.3,1.9
	C166,124.5,166.2,123.9,166.2,123.4z"/>
<path fill="#FFFFFF" d="M163.3,126.3c0,0.6-0.6,0.7-0.6,1.2C162.4,126.8,162.8,126.5,163.3,126.3z"/>
<path fill="#FFFFFF" d="M168.5,124.2c0.1-0.1,0.2-0.2,0.3-0.2h0C168.7,124.1,168.6,124.2,168.5,124.2c0,0.2,0,0.4-0.3,0.3
	c0,0-0.1-0.1-0.1-0.2C168.2,124.2,168.3,124.2,168.5,124.2z"/>
<path fill="#FFFFFF" d="M167.4,122.2L167.4,122.2c0.1-0.6,0.4-1.1,1.1-1.2c0.4-0.1,0.3-0.4,0.3-0.6c0.1-0.6,0.5-0.9,1.1-1
	c0.7,0,0.7,0.6,0.9,1c0.2,0.4-0.3,0.7-0.6,0.8c-0.4,0.2-0.6,0.4-0.8,0.8c-0.4,0.6-0.9,1.2-1.6,1.5c0,0.1,0,0.2-0.1,0.4
	c0,0-0.1,0-0.1,0c0-0.1,0-0.3,0.1-0.3c0.1-0.6,0.7-0.9,1.1-1.3c0.1-0.2,0.5-0.4,0.1-0.6c-0.3-0.2-0.5-0.2-0.7,0.1
	C168,121.9,167.7,122.1,167.4,122.2z"/>
<path fill="#FFFFFF" d="M168.9,128.5c-0.4,0.5-0.8,0.4-1.3,0.1c-0.5-0.3-1-0.3-1.5-0.1l0,0c0.2-0.7,0.5-0.9,1.2-0.5
	C167.9,128.4,168.3,128.6,168.9,128.5z"/>
<path fill="#FFFFFF" d="M170.6,124.1c-0.3-1.6-1-0.7-1.6-0.5l0,0c0-0.4,0.3-0.6,0.6-0.8c0.3-0.3,0.6-0.1,0.8,0.1
	C170.9,123.1,170.8,123.5,170.6,124.1z"/>
<path fill="#FFFFFF" d="M170.4,126.4c0.2,0.7,0,1.1-0.8,1.1C169.7,127.1,170.5,127.1,170.4,126.4z"/>
<path fill="#EDECEC" d="M166.9,125.6c-0.9-0.1-0.2-0.6-0.2-0.9c0,0,0,0,0,0C167.6,124.8,166.6,125.3,166.9,125.6
	C166.9,125.6,166.9,125.6,166.9,125.6z"/>
<path fill="#EDECEC" d="M163.7,125.6c0.1,0.1,0.1,0.2,0.1,0.2c-0.1,0.1-0.1,0.2-0.2,0.2c-0.2,0-0.2-0.1-0.1-0.2
	C163.5,125.7,163.6,125.7,163.7,125.6z"/>
<path fill="#EDECEC" d="M211.1,136.8c0-0.1,0-0.2,0-0.4c0.2,0,0.4-0.2,0.4,0C211.6,136.7,211.3,136.7,211.1,136.8z"/>
<path fill="#EDECEC" d="M166.2,128.6v0.3l0,0c-0.1,0-0.3,0-0.3-0.2C165.9,128.6,166.1,128.6,166.2,128.6L166.2,128.6z"/>
<path fill="#EDECEC" d="M164.2,128.9c0.1,0,0.3,0.1,0.3,0.1c0,0.2-0.1,0.2-0.3,0.2c0,0,0,0,0,0C164.2,129.1,164.2,129,164.2,128.9
	L164.2,128.9z"/>
<path fill="#EDECEC" d="M167.4,122.2c0,0.2-0.1,0.3-0.4,0.3l0,0C167.1,122.4,167.2,122.2,167.4,122.2L167.4,122.2z"/>
<path fill="#EDECEC" d="M41.3,122.9c0.2,0,0.3,0.1,0.4,0.4c0,0,0,0,0,0C41.4,123.3,41.3,123.2,41.3,122.9
	C41.3,122.9,41.3,122.9,41.3,122.9z"/>
<path fill="#EDECEC" d="M41.7,123.6c0-0.1,0-0.2,0-0.3c0,0,0,0,0,0c0.1,0,0.3,0,0.3,0.2C41.9,123.6,41.8,123.6,41.7,123.6
	L41.7,123.6z"/>
<path fill="#EDECEC" d="M41.7,123.6c0,0.1,0,0.3-0.2,0.3c0,0-0.1,0-0.1-0.1C41.4,123.7,41.5,123.7,41.7,123.6
	C41.7,123.6,41.7,123.6,41.7,123.6z"/>
<path fill="#EDECEC" d="M169.9,125.9c-0.2,0-0.3-0.1-0.4-0.4c0,0,0,0,0,0C169.6,125.7,169.7,125.8,169.9,125.9L169.9,125.9z"/>
<path fill="#EDECEC" d="M169.9,125.9c0.1,0.1,0.2,0.2,0.3,0.4l0,0C170,126.3,169.9,126.2,169.9,125.9
	C169.9,125.9,169.9,125.9,169.9,125.9z"/>
<path fill="#EDECEC" d="M169,123.6c0,0.1,0,0.3-0.2,0.3h0C168.8,123.8,168.8,123.7,169,123.6L169,123.6z"/>
<path fill="#EDECEC" d="M169,127c0.1,0,0.2,0.1,0.2,0.1c0,0,0,0.1,0,0.1C169.1,127.1,169,127,169,127C169,127,169,127,169,127z"/>
<path fill="#EDECEC" d="M169.9,124.3c0.1,0,0.1-0.1,0.2-0.1c0,0,0,0,0,0.1C170,124.3,169.9,124.3,169.9,124.3
	C169.9,124.3,169.9,124.3,169.9,124.3z"/>
<path fill="#EDECEC" d="M40.8,124.7c0-0.1,0.1-0.2,0.1-0.2c0,0,0.1,0,0.1,0C40.9,124.6,40.9,124.6,40.8,124.7
	C40.8,124.7,40.8,124.7,40.8,124.7z"/>
<path fill="#EDECEC" d="M161.3,129.9C161.3,129.9,161.3,129.9,161.3,129.9C161.2,129.9,161.2,129.9,161.3,129.9
	C161.3,129.8,161.3,129.8,161.3,129.9C161.3,129.8,161.3,129.9,161.3,129.9z"/>
<path fill="#EDECEC" d="M45,134c0,0.1,0,0.1-0.1,0.2C44.9,134.1,44.9,134,45,134z"/>
<path fill="#EDECEC" d="M164.8,132.6C164.7,132.6,164.7,132.6,164.8,132.6C164.7,132.6,164.7,132.6,164.8,132.6
	C164.8,132.6,164.8,132.6,164.8,132.6z"/>
<path fill="#EDECEC" d="M167.8,125.7C167.7,125.7,167.7,125.7,167.8,125.7C167.7,125.7,167.7,125.7,167.8,125.7L167.8,125.7z"/>
<path fill="#EDECEC" d="M167.8,125.7c0.1,0.1,0.1,0.1,0.2,0.2c0,0,0,0,0,0C167.9,125.9,167.8,125.8,167.8,125.7
	C167.8,125.7,167.8,125.7,167.8,125.7z"/>
<path fill="#EDECEC" d="M168.1,126.1c-0.1-0.1-0.1-0.1-0.2-0.2c0,0,0,0,0,0C168,126,168.1,126,168.1,126.1L168.1,126.1z"/>
<path fill="#EDECEC" d="M168.1,126.1c0.1,0.1,0.1,0.1,0.2,0.2l0,0C168.2,126.2,168.2,126.2,168.1,126.1
	C168.1,126.1,168.1,126.1,168.1,126.1z"/>
<path fill="#EDECEC" d="M168.3,126.3C168.3,126.3,168.3,126.3,168.3,126.3C168.3,126.3,168.3,126.3,168.3,126.3
	C168.3,126.3,168.3,126.3,168.3,126.3z"/>
<path fill="#EDECEC" d="M170.2,126.3c0.1,0.1,0.1,0.1,0.2,0.2c0,0,0,0,0,0C170.3,126.4,170.3,126.3,170.2,126.3
	C170.2,126.3,170.2,126.3,170.2,126.3z"/>
<path fill="#EDECEC" d="M168.8,126.8C168.8,126.8,168.8,126.7,168.8,126.8C168.8,126.7,168.8,126.8,168.8,126.8L168.8,126.8z"/>
<path fill="#EDECEC" d="M168.8,126.8c0.1,0.1,0.1,0.1,0.2,0.2c0,0,0,0,0,0C168.9,126.9,168.9,126.9,168.8,126.8
	C168.8,126.8,168.8,126.8,168.8,126.8z"/>
<rect x="120.3" y="133.6" fill="#EDECEC" width="0" height="0"/>
<path fill="#EDECEC" d="M142.5,133.6c-0.1,0-0.2,0-0.3,0c-7.3,0-14.5,0-21.8,0c0-0.1,0-0.1,0-0.2c0.5-1.8,1.1-3.5,1.6-5.3
	c0.8-2.7,1.7-5.4,2.3-8.2c0.1-0.1,0.1-0.3,0.2-0.4c1.6-5.4,3.1-10.8,4.7-16.2c0.6-2.2,1.2-4.3,1.8-6.5c0.1,0.1,0.2,0.2,0.3,0.3
	c0.9,3.1,1.9,6.1,2.8,9.2c1.4,4.4,2.7,8.9,4.1,13.3c1,3.1,2,6.3,3,9.4C141.6,130.7,142.1,132.1,142.5,133.6z"/>
<path fill="#884820" d="M119.3,105c-0.1,0.4-0.4,0.5-0.6,0.7c-3.6,2.6-7.2,5.2-10.8,7.8c-0.1,0-0.3,0-0.4-0.1
	c-3.4-1.4-6.9-2.6-10.4-3.9c-3.2-1.1-6.3-2.5-9.6-3.5c-0.4-0.3-0.9-0.5-1.5-0.4h0c0-0.2,0.1-0.3,0.1-0.5c1.9-1.4,3.9-2.8,5.8-4.2
	c1.8-1.3,3.6-2.6,5.3-3.9c0.4-0.3,0.9-0.3,1.4-0.1c4.1,1.6,8.2,3.2,12.2,4.8C113.7,102.8,116.5,103.9,119.3,105z"/>
<path fill="#D06A28" d="M130.9,97c-0.6,2.2-1.2,4.3-1.8,6.5c-1.6,5.4-3.1,10.8-4.7,16.2c0,0.1-0.1,0.3-0.2,0.4
	c0-0.5-0.3-0.6-0.7-0.8c-1.6-0.6-3.3-1.1-4.9-1.8c-3.6-1.3-7.2-2.7-10.8-4c3.6-2.6,7.2-5.2,10.8-7.8c0.3-0.2,0.6-0.3,0.6-0.7
	c1.5-0.8,2.8-2,4.2-2.9c2.4-1.7,4.7-3.4,7.1-5.1C130.7,97,130.8,97,130.9,97z"/>
<path fill="#884820" d="M167.4,99.3c-0.9,1.5-2.1,2.8-3.1,4.2c-2.3,3-4.5,5.9-6.8,8.9c-0.6,0.7-1.2,1.5-1.7,2.2
	c-0.3,0.3-0.5,0.4-0.8,0c-1.8-1.8-3.7-3.5-5.5-5.2c-1.3-1.3-2.7-2.5-4-3.8c-0.1-0.2-0.2-0.4-0.3-0.5c3.9-1.1,7.8-2.1,11.7-3.2
	c3.2-0.9,6.5-1.8,9.8-2.6c0.2-0.1,0.5-0.1,0.8-0.1C167.4,99.2,167.4,99.2,167.4,99.3z"/>
<path fill="#FFFFFF" d="M88.1,72.7c-0.2,0.1-0.3,0.2-0.4,0.3C87.7,72.8,87.9,72.7,88.1,72.7z"/>
<path fill="#EAB68E" d="M87,73.9L87,73.9L87,73.9L87,73.9C87,73.9,87,73.9,87,73.9z"/>
<path fill="#EAB68E" d="M86.6,77.8L86.6,77.8L86.6,77.8L86.6,77.8C86.6,77.8,86.6,77.8,86.6,77.8z"/>
<path fill="#884820" d="M167.5,99.1c0,0-0.1,0.1-0.1,0.1c0,0-0.1-0.1-0.1-0.1C167.4,99.1,167.5,99,167.5,99.1z"/>
<path fill="#EDECEC" d="M136.8,160.1c-0.1,0-0.1,0.1-0.2,0.1c-0.4,0-0.5-0.3-0.7-0.6c-1.4-2-2.8-3.9-4.2-5.9
	c-0.4-0.6-0.8-0.7-1.3-0.1c-1,1.3-2.1,2.7-3.1,4c-0.6,0.8-1.2,1.5-1.8,2.3c-0.2,0.3-0.3,0.3-0.6,0c-1.5-1.8-3.1-3.6-4.6-5.4
	c-1.9-2.2-3.7-4.4-5.6-6.6c-0.9-1.1-1.9-2.1-2.7-3.3c1.5,0.2,2.8,1.1,4.2,1.6c2.2,0.9,4.3,1.9,6.5,2.9c2.5,1.1,5.2,2,7.6,3.4
	c0.2,0.1,0.4,0.2,0.5-0.1c0.5,0.4,0.4-0.3,0.7-0.3c0.1,0.2,0.3,0.2,0.5,0.1c0.7-0.3,1.4-0.5,2-0.8c2.6-1.3,5.2-2.2,7.8-3.4
	c1.8-0.8,3.6-1.6,5.4-2.2c1.1-0.4,2-1.1,3.2-1.2c-1.5,2-3.3,3.7-4.9,5.5c-2.8,3.1-5.6,6.1-8.4,9.2
	C137.1,159.6,136.8,159.8,136.8,160.1z"/>
<path fill="#FFFFFF" d="M130.9,152.6c-0.1,0.2-0.4,0.1-0.5,0.1c-2.4-1.4-5-2.2-7.6-3.4c-2.2-1-4.3-2.1-6.5-2.9
	c-1.4-0.5-2.7-1.4-4.2-1.6c-0.1-0.1-0.1-0.1-0.2-0.2c0-0.3,0-0.6,0.3-0.9c1.6-1.8,3-3.7,4.6-5.5c1.1-1.2,2.1-2.5,3-3.9
	c0.2-0.3,0.4-0.2,0.6-0.2c0.4,0.6,0.8,1.2,1.1,1.8c1.7,3,3.4,6,5,9C128,147.3,129.4,150,130.9,152.6z"/>
<path fill="#FFFFFF" d="M101.2,133.1v0.3c-0.3,0.2-0.8,0.2-1.1,0.2c-0.6,0,0-0.5-0.4-0.9c-0.2,1.1-1.1,0.9-1.9,0.9
	c-2.5,0.2-5,0.1-7.5,0.2c-6.8,0.2-13.5,0-20.3,0.2c-3.4,0.1-6.8,0-10.3,0.2c-4.5,0.3-8.9,0.1-13.4,0.1c-0.3,0-0.7,0.1-1-0.2
	c3.7-2.6,7.3-5.2,11-7.8c5.7-4,11.4-8,17-12c3.7-2.6,7.3-5.2,11-7.8c0.5-0.4,0.9-1,1.7-0.9h0c0.8,1.5,1.7,3,2.5,4.5
	c2.5,4.5,5,9,7.5,13.5c0.1,0.2,0.3,0.5,0.4,0.7c0.7,1.3,1.3,2.5,2,3.8C99.3,129.8,100.3,131.5,101.2,133.1z"/>
<path fill="#E6843A" d="M163.3,63.1c-0.1,0-0.2,0-0.3,0l0.5,0.3C163.4,63.3,163.4,63.2,163.3,63.1z"/>
<path fill="#FFFFFF" d="M150.5,144.7c-1.2,0.1-2.1,0.8-3.2,1.2c-1.8,0.6-3.6,1.4-5.4,2.2c-2.6,1.2-5.3,2.2-7.8,3.4
	c-0.6,0.3-1.3,0.5-2,0.8c-0.2,0.1-0.4,0.1-0.5-0.1c1.1-1.8,2.1-3.6,3.2-5.4c1.8-3.1,3.6-6.1,5.5-9.1c0.8-1.3,1.4-2.7,2.5-3.9
	c0.1,0,0.2,0.1,0.3,0.1c0,0.1,0,0.3,0.1,0.4c0.8,1.1,1.7,2.2,2.5,3.3c1,1.2,2,2.4,3,3.7c0.7,1,1.4,2,2.3,2.8
	C150.9,144.4,150.8,144.6,150.5,144.7z"/>
<path fill="#EDECEC" d="M150.9,144.1c-0.9-0.8-1.6-1.8-2.3-2.8c-1-1.3-2-2.4-3-3.7c-0.9-1.1-1.7-2.2-2.5-3.3
	c-0.1-0.1-0.1-0.3-0.1-0.4c0,0,0.1,0,0.2-0.1c4.3,0,8.7,0,13.1,0c0,1.1-0.8,1.8-1.2,2.6c-1,2.3-2.3,4.5-3.4,6.7
	C151.4,143.5,151.3,143.9,150.9,144.1z"/>
<path fill="#884820" d="M142.7,133.8c-1.1,1.1-1.7,2.6-2.5,3.9c-1.9,3-3.7,6.1-5.5,9.1c-1.1,1.8-2.1,3.6-3.2,5.4
	c-0.3,0-0.2,0.8-0.7,0.3c-1.5-2.6-2.9-5.2-4.4-7.8c-1.7-3-3.3-6-5-9c-0.3-0.6-0.7-1.2-1.1-1.8c0-0.1,0-0.2,0-0.3v0h0
	c7.3,0,14.5,0,21.8,0c0.1,0,0.2,0,0.3,0C142.6,133.7,142.6,133.7,142.7,133.8z"/>
<rect x="120.3" y="133.6" fill="#D06A28" width="0" height="0"/>
<path fill="#EAB68E" d="M96.4,141.8c0.3-0.1,0.6-0.2,0.9-0.4c-0.1,0.1-0.2,0.3-0.2,0.4c-0.1,0.1-0.2,0.2-0.4,0.3
	c-0.6,0.4-1.5,0.3-2.2-0.3c0.1,0,0.2,0.1,0.2,0.1C95.3,142,95.9,142,96.4,141.8z"/>
<path fill="#EAB68E" d="M97.4,141.4C97.3,141.4,97.3,141.4,97.4,141.4C97.3,141.4,97.3,141.4,97.4,141.4L97.4,141.4z"/>
<path fill="#EAB68E" d="M89.1,136.3c-0.6-0.7-0.4-1.5,0-2.2C89.1,134.9,89,135.6,89.1,136.3z"/>
<path fill="#EAB68E" d="M91.3,138.6c-0.2-0.1-0.5-0.2-0.6-0.3c-0.1-0.1-0.1-0.1-0.2-0.2c-0.1-0.1-0.1-0.2-0.2-0.4
	C90.9,137.8,91.1,138.2,91.3,138.6z"/>
<path fill="#EAB68E" d="M90.3,137.7c-0.2,0-0.4-0.1-0.4-0.3c0-0.1,0-0.2,0.1-0.1C90.2,137.3,90.3,137.5,90.3,137.7z"/>
<rect x="90.3" y="137.7" fill="#EAB68E" width="0" height="0"/>
<path fill="#EAB68E" d="M97.3,141.4C97.3,141.4,97.4,141.4,97.3,141.4C97.4,141.4,97.4,141.4,97.3,141.4L97.3,141.4z"/>
<path fill="#EAB68E" d="M97.5,141.3c0,0-0.1,0-0.1,0.1c0-0.1,0-0.1,0-0.2C97.4,141.2,97.4,141.2,97.5,141.3
	C97.5,141.2,97.5,141.3,97.5,141.3z"/>
<path fill="#FFFFFF" d="M164.2,128.9c0,0.1,0,0.2,0,0.3c-0.1,0-0.3,0-0.3-0.2C164,129,164.1,129,164.2,128.9z"/>
<path fill="#E6843A" d="M124.2,120c-0.6,2.8-1.5,5.5-2.3,8.2c-0.5,1.8-1.1,3.5-1.6,5.3c-1.4-0.6-2.4-1.8-3.6-2.7
	c-2.2-1.7-4.4-3.5-6.5-5.3c-1.5-1.3-3-2.5-4.5-3.8c-1.3-1.1-2.7-2.1-3.9-3.2c-1.9-1.7-4-3.2-5.9-4.8c-1.3-1.1-2.6-2.2-3.9-3.2
	c-1.5-1.2-3-2.4-4.4-3.6c-0.2-0.2-0.3-0.4-0.7-0.3c0.2-0.3,0.4-0.4,0.7-0.4c3.3,1,6.4,2.3,9.6,3.5c3.5,1.2,7,2.5,10.4,3.9
	c0.1,0,0.3,0.1,0.4,0.1c3.6,1.3,7.2,2.7,10.8,4c1.6,0.6,3.3,1.2,4.9,1.8C123.9,119.4,124.3,119.5,124.2,120z"/>
<path fill="#E6843A" d="M86.6,77.8L86.6,77.8L86.6,77.8L86.6,77.8C86.6,77.8,86.6,77.8,86.6,77.8z M87,73.9L87,73.9L87,73.9L87,73.9
	C87,73.9,87,73.9,87,73.9z"/>
<path fill="#FFFFFF" d="M120.3,133.6L120.3,133.6L120.3,133.6c-5.1,0-10.2,0-15.3,0c-1,0-2,0-2.9,0c-0.3,0-0.6-0.1-0.9-0.2v-0.3
	c-0.9-1.7-1.9-3.3-2.8-5c-0.7-1.2-1.4-2.5-2-3.8c-0.1-0.2-0.3-0.5-0.4-0.7c-2.5-4.5-5-9-7.5-13.5c-0.8-1.5-1.7-3-2.5-4.5
	c0.6-0.1,1,0.1,1.5,0.4c-0.2,0-0.4,0.1-0.7,0.4c0.4-0.1,0.5,0.1,0.7,0.3c1.4,1.3,2.9,2.5,4.4,3.6c1.3,1,2.6,2.1,3.9,3.2
	c1.9,1.7,4,3.1,5.9,4.8c1.3,1.1,2.7,2.1,3.9,3.2c1.5,1.3,3,2.5,4.5,3.8c2.1,1.8,4.3,3.5,6.5,5.3c1.2,0.9,2.2,2.1,3.6,2.7
	C120.3,133.5,120.3,133.6,120.3,133.6z"/>
<path fill="#EDECEC" d="M40.7,65c1,0.4,1.2,0.8,0.7,1.9C41.4,66.2,41.2,65.6,40.7,65z"/>
<line fill="none" x1="163" y1="63" x2="159.4" y2="60.6"/>
<line fill="none" x1="158.9" y1="60.3" x2="156.7" y2="58.8"/>
<g>
</g>
<g>
</g>
<g>
</g>
<g>
</g>
<g>
</g>
<g>
</g>
</svg>
